%TF.GenerationSoftware,KiCad,Pcbnew,(6.0.10-0)*%
%TF.CreationDate,2023-01-19T22:09:39-05:00*%
%TF.ProjectId,Tang Primer 20k HD6309 Board,54616e67-2050-4726-996d-65722032306b,rev?*%
%TF.SameCoordinates,Original*%
%TF.FileFunction,Legend,Bot*%
%TF.FilePolarity,Positive*%
%FSLAX46Y46*%
G04 Gerber Fmt 4.6, Leading zero omitted, Abs format (unit mm)*
G04 Created by KiCad (PCBNEW (6.0.10-0)) date 2023-01-19 22:09:39*
%MOMM*%
%LPD*%
G01*
G04 APERTURE LIST*
G04 Aperture macros list*
%AMRoundRect*
0 Rectangle with rounded corners*
0 $1 Rounding radius*
0 $2 $3 $4 $5 $6 $7 $8 $9 X,Y pos of 4 corners*
0 Add a 4 corners polygon primitive as box body*
4,1,4,$2,$3,$4,$5,$6,$7,$8,$9,$2,$3,0*
0 Add four circle primitives for the rounded corners*
1,1,$1+$1,$2,$3*
1,1,$1+$1,$4,$5*
1,1,$1+$1,$6,$7*
1,1,$1+$1,$8,$9*
0 Add four rect primitives between the rounded corners*
20,1,$1+$1,$2,$3,$4,$5,0*
20,1,$1+$1,$4,$5,$6,$7,0*
20,1,$1+$1,$6,$7,$8,$9,0*
20,1,$1+$1,$8,$9,$2,$3,0*%
G04 Aperture macros list end*
%ADD10C,0.150000*%
%ADD11C,0.120000*%
%ADD12R,1.700000X1.700000*%
%ADD13O,1.700000X1.700000*%
%ADD14RoundRect,0.250000X0.250000X0.475000X-0.250000X0.475000X-0.250000X-0.475000X0.250000X-0.475000X0*%
%ADD15RoundRect,0.250000X-0.250000X-0.475000X0.250000X-0.475000X0.250000X0.475000X-0.250000X0.475000X0*%
%ADD16RoundRect,0.250000X0.475000X-0.250000X0.475000X0.250000X-0.475000X0.250000X-0.475000X-0.250000X0*%
%ADD17R,1.440000X2.000000*%
%ADD18O,1.440000X2.000000*%
%ADD19R,0.900000X0.900000*%
G04 APERTURE END LIST*
D10*
X109452666Y-90117142D02*
X109500285Y-90164761D01*
X109643142Y-90212380D01*
X109738380Y-90212380D01*
X109881238Y-90164761D01*
X109976476Y-90069523D01*
X110024095Y-89974285D01*
X110071714Y-89783809D01*
X110071714Y-89640952D01*
X110024095Y-89450476D01*
X109976476Y-89355238D01*
X109881238Y-89260000D01*
X109738380Y-89212380D01*
X109643142Y-89212380D01*
X109500285Y-89260000D01*
X109452666Y-89307619D01*
X109119333Y-89212380D02*
X108452666Y-89212380D01*
X108881238Y-90212380D01*
X36361666Y-105767142D02*
X36409285Y-105814761D01*
X36552142Y-105862380D01*
X36647380Y-105862380D01*
X36790238Y-105814761D01*
X36885476Y-105719523D01*
X36933095Y-105624285D01*
X36980714Y-105433809D01*
X36980714Y-105290952D01*
X36933095Y-105100476D01*
X36885476Y-105005238D01*
X36790238Y-104910000D01*
X36647380Y-104862380D01*
X36552142Y-104862380D01*
X36409285Y-104910000D01*
X36361666Y-104957619D01*
X35504523Y-104862380D02*
X35695000Y-104862380D01*
X35790238Y-104910000D01*
X35837857Y-104957619D01*
X35933095Y-105100476D01*
X35980714Y-105290952D01*
X35980714Y-105671904D01*
X35933095Y-105767142D01*
X35885476Y-105814761D01*
X35790238Y-105862380D01*
X35599761Y-105862380D01*
X35504523Y-105814761D01*
X35456904Y-105767142D01*
X35409285Y-105671904D01*
X35409285Y-105433809D01*
X35456904Y-105338571D01*
X35504523Y-105290952D01*
X35599761Y-105243333D01*
X35790238Y-105243333D01*
X35885476Y-105290952D01*
X35933095Y-105338571D01*
X35980714Y-105433809D01*
X39282666Y-83513142D02*
X39330285Y-83560761D01*
X39473142Y-83608380D01*
X39568380Y-83608380D01*
X39711238Y-83560761D01*
X39806476Y-83465523D01*
X39854095Y-83370285D01*
X39901714Y-83179809D01*
X39901714Y-83036952D01*
X39854095Y-82846476D01*
X39806476Y-82751238D01*
X39711238Y-82656000D01*
X39568380Y-82608380D01*
X39473142Y-82608380D01*
X39330285Y-82656000D01*
X39282666Y-82703619D01*
X38377904Y-82608380D02*
X38854095Y-82608380D01*
X38901714Y-83084571D01*
X38854095Y-83036952D01*
X38758857Y-82989333D01*
X38520761Y-82989333D01*
X38425523Y-83036952D01*
X38377904Y-83084571D01*
X38330285Y-83179809D01*
X38330285Y-83417904D01*
X38377904Y-83513142D01*
X38425523Y-83560761D01*
X38520761Y-83608380D01*
X38758857Y-83608380D01*
X38854095Y-83560761D01*
X38901714Y-83513142D01*
X107701142Y-94509333D02*
X107748761Y-94461714D01*
X107796380Y-94318857D01*
X107796380Y-94223619D01*
X107748761Y-94080761D01*
X107653523Y-93985523D01*
X107558285Y-93937904D01*
X107367809Y-93890285D01*
X107224952Y-93890285D01*
X107034476Y-93937904D01*
X106939238Y-93985523D01*
X106844000Y-94080761D01*
X106796380Y-94223619D01*
X106796380Y-94318857D01*
X106844000Y-94461714D01*
X106891619Y-94509333D01*
X106891619Y-94890285D02*
X106844000Y-94937904D01*
X106796380Y-95033142D01*
X106796380Y-95271238D01*
X106844000Y-95366476D01*
X106891619Y-95414095D01*
X106986857Y-95461714D01*
X107082095Y-95461714D01*
X107224952Y-95414095D01*
X107796380Y-94842666D01*
X107796380Y-95461714D01*
X39216666Y-67511142D02*
X39264285Y-67558761D01*
X39407142Y-67606380D01*
X39502380Y-67606380D01*
X39645238Y-67558761D01*
X39740476Y-67463523D01*
X39788095Y-67368285D01*
X39835714Y-67177809D01*
X39835714Y-67034952D01*
X39788095Y-66844476D01*
X39740476Y-66749238D01*
X39645238Y-66654000D01*
X39502380Y-66606380D01*
X39407142Y-66606380D01*
X39264285Y-66654000D01*
X39216666Y-66701619D01*
X38359523Y-66939714D02*
X38359523Y-67606380D01*
X38597619Y-66558761D02*
X38835714Y-67273047D01*
X38216666Y-67273047D01*
X91953142Y-99589333D02*
X92000761Y-99541714D01*
X92048380Y-99398857D01*
X92048380Y-99303619D01*
X92000761Y-99160761D01*
X91905523Y-99065523D01*
X91810285Y-99017904D01*
X91619809Y-98970285D01*
X91476952Y-98970285D01*
X91286476Y-99017904D01*
X91191238Y-99065523D01*
X91096000Y-99160761D01*
X91048380Y-99303619D01*
X91048380Y-99398857D01*
X91096000Y-99541714D01*
X91143619Y-99589333D01*
X91048380Y-99922666D02*
X91048380Y-100541714D01*
X91429333Y-100208380D01*
X91429333Y-100351238D01*
X91476952Y-100446476D01*
X91524571Y-100494095D01*
X91619809Y-100541714D01*
X91857904Y-100541714D01*
X91953142Y-100494095D01*
X92000761Y-100446476D01*
X92048380Y-100351238D01*
X92048380Y-100065523D01*
X92000761Y-99970285D01*
X91953142Y-99922666D01*
X31002380Y-100651666D02*
X31716666Y-100651666D01*
X31859523Y-100604047D01*
X31954761Y-100508809D01*
X32002380Y-100365952D01*
X32002380Y-100270714D01*
X32002380Y-101651666D02*
X32002380Y-101080238D01*
X32002380Y-101365952D02*
X31002380Y-101365952D01*
X31145238Y-101270714D01*
X31240476Y-101175476D01*
X31288095Y-101080238D01*
X72286666Y-89022142D02*
X72334285Y-89069761D01*
X72477142Y-89117380D01*
X72572380Y-89117380D01*
X72715238Y-89069761D01*
X72810476Y-88974523D01*
X72858095Y-88879285D01*
X72905714Y-88688809D01*
X72905714Y-88545952D01*
X72858095Y-88355476D01*
X72810476Y-88260238D01*
X72715238Y-88165000D01*
X72572380Y-88117380D01*
X72477142Y-88117380D01*
X72334285Y-88165000D01*
X72286666Y-88212619D01*
X71334285Y-89117380D02*
X71905714Y-89117380D01*
X71620000Y-89117380D02*
X71620000Y-88117380D01*
X71715238Y-88260238D01*
X71810476Y-88355476D01*
X71905714Y-88403095D01*
X52125476Y-73867380D02*
X52458809Y-73391190D01*
X52696904Y-73867380D02*
X52696904Y-72867380D01*
X52315952Y-72867380D01*
X52220714Y-72915000D01*
X52173095Y-72962619D01*
X52125476Y-73057857D01*
X52125476Y-73200714D01*
X52173095Y-73295952D01*
X52220714Y-73343571D01*
X52315952Y-73391190D01*
X52696904Y-73391190D01*
X51696904Y-73867380D02*
X51696904Y-72867380D01*
X51125476Y-73867380D01*
X51125476Y-72867380D01*
X50125476Y-73867380D02*
X50696904Y-73867380D01*
X50411190Y-73867380D02*
X50411190Y-72867380D01*
X50506428Y-73010238D01*
X50601666Y-73105476D01*
X50696904Y-73153095D01*
D11*
X109547252Y-92175000D02*
X109024748Y-92175000D01*
X109547252Y-90705000D02*
X109024748Y-90705000D01*
X33393748Y-106145000D02*
X33916252Y-106145000D01*
X33393748Y-104675000D02*
X33916252Y-104675000D01*
X39377252Y-85571000D02*
X38854748Y-85571000D01*
X39377252Y-84101000D02*
X38854748Y-84101000D01*
X104929000Y-94937252D02*
X104929000Y-94414748D01*
X106399000Y-94937252D02*
X106399000Y-94414748D01*
X39311252Y-69569000D02*
X38788748Y-69569000D01*
X39311252Y-68099000D02*
X38788748Y-68099000D01*
X90651000Y-100017252D02*
X90651000Y-99494748D01*
X89181000Y-100017252D02*
X89181000Y-99494748D01*
X32990000Y-100985000D02*
X35590000Y-100985000D01*
X32990000Y-98385000D02*
X32990000Y-100985000D01*
X35590000Y-103585000D02*
X83910000Y-103585000D01*
X83910000Y-98385000D02*
X83910000Y-103585000D01*
X35590000Y-100985000D02*
X35590000Y-103585000D01*
X32990000Y-98385000D02*
X83910000Y-98385000D01*
X32990000Y-103585000D02*
X34320000Y-103585000D01*
X32990000Y-102255000D02*
X32990000Y-103585000D01*
X71858748Y-86250000D02*
X72381252Y-86250000D01*
X71858748Y-87720000D02*
X72381252Y-87720000D01*
X52485000Y-65945000D02*
X50385000Y-65945000D01*
X52485000Y-72485000D02*
X50385000Y-72485000D01*
%LPC*%
D12*
X113284000Y-91689000D03*
D13*
X113284000Y-94229000D03*
D14*
X110236000Y-91440000D03*
X108336000Y-91440000D03*
D15*
X34605000Y-105410000D03*
X32705000Y-105410000D03*
D14*
X40066000Y-84836000D03*
X38166000Y-84836000D03*
D16*
X105664000Y-95626000D03*
X105664000Y-93726000D03*
D14*
X40000000Y-68834000D03*
X38100000Y-68834000D03*
D16*
X89916000Y-98806000D03*
X89916000Y-100706000D03*
D17*
X57150000Y-83820000D03*
D18*
X59690000Y-83820000D03*
X62230000Y-83820000D03*
X64770000Y-83820000D03*
X67310000Y-83820000D03*
X69850000Y-83820000D03*
X72390000Y-83820000D03*
X74930000Y-83820000D03*
X77470000Y-83820000D03*
X80010000Y-83820000D03*
X82550000Y-83820000D03*
X85090000Y-83820000D03*
X87630000Y-83820000D03*
X90170000Y-83820000D03*
X92710000Y-83820000D03*
X95250000Y-83820000D03*
X97790000Y-83820000D03*
X100330000Y-83820000D03*
X102870000Y-83820000D03*
X105410000Y-83820000D03*
X105410000Y-68580000D03*
X102870000Y-68580000D03*
X100330000Y-68580000D03*
X97790000Y-68580000D03*
X95250000Y-68580000D03*
X92710000Y-68580000D03*
X90170000Y-68580000D03*
X87630000Y-68580000D03*
X85090000Y-68580000D03*
X82550000Y-68580000D03*
X80010000Y-68580000D03*
X77470000Y-68580000D03*
X74930000Y-68580000D03*
X72390000Y-68580000D03*
X69850000Y-68580000D03*
X67310000Y-68580000D03*
X64770000Y-68580000D03*
X62230000Y-68580000D03*
X59690000Y-68580000D03*
X57150000Y-68580000D03*
D13*
X82580000Y-99715000D03*
X82580000Y-102255000D03*
X80040000Y-99715000D03*
X80040000Y-102255000D03*
X77500000Y-99715000D03*
X77500000Y-102255000D03*
X74960000Y-99715000D03*
X74960000Y-102255000D03*
X72420000Y-99715000D03*
X72420000Y-102255000D03*
X69880000Y-99715000D03*
X69880000Y-102255000D03*
X67340000Y-99715000D03*
X67340000Y-102255000D03*
X64800000Y-99715000D03*
X64800000Y-102255000D03*
X62260000Y-99715000D03*
X62260000Y-102255000D03*
X59720000Y-99715000D03*
X59720000Y-102255000D03*
X57180000Y-99715000D03*
X57180000Y-102255000D03*
X54640000Y-99715000D03*
X54640000Y-102255000D03*
X52100000Y-99715000D03*
X52100000Y-102255000D03*
X49560000Y-99715000D03*
X49560000Y-102255000D03*
X47020000Y-99715000D03*
X47020000Y-102255000D03*
X44480000Y-99715000D03*
X44480000Y-102255000D03*
X41940000Y-99715000D03*
X41940000Y-102255000D03*
X39400000Y-99715000D03*
X39400000Y-102255000D03*
X36860000Y-99715000D03*
X36860000Y-102255000D03*
X34320000Y-99715000D03*
D12*
X34320000Y-102255000D03*
D15*
X71170000Y-86985000D03*
X73070000Y-86985000D03*
D19*
X52935000Y-71815000D03*
X52935000Y-70495000D03*
X52935000Y-69215000D03*
X52935000Y-67935000D03*
X52935000Y-66615000D03*
X49935000Y-66615000D03*
X49935000Y-67935000D03*
X49935000Y-69215000D03*
X49935000Y-70495000D03*
X49935000Y-71815000D03*
M02*
