%TF.GenerationSoftware,KiCad,Pcbnew,(6.0.10-0)*%
%TF.CreationDate,2023-01-19T22:09:39-05:00*%
%TF.ProjectId,Tang Primer 20k HD6309 Board,54616e67-2050-4726-996d-65722032306b,rev?*%
%TF.SameCoordinates,Original*%
%TF.FileFunction,Paste,Top*%
%TF.FilePolarity,Positive*%
%FSLAX46Y46*%
G04 Gerber Fmt 4.6, Leading zero omitted, Abs format (unit mm)*
G04 Created by KiCad (PCBNEW (6.0.10-0)) date 2023-01-19 22:09:39*
%MOMM*%
%LPD*%
G01*
G04 APERTURE LIST*
G04 Aperture macros list*
%AMRoundRect*
0 Rectangle with rounded corners*
0 $1 Rounding radius*
0 $2 $3 $4 $5 $6 $7 $8 $9 X,Y pos of 4 corners*
0 Add a 4 corners polygon primitive as box body*
4,1,4,$2,$3,$4,$5,$6,$7,$8,$9,$2,$3,0*
0 Add four circle primitives for the rounded corners*
1,1,$1+$1,$2,$3*
1,1,$1+$1,$4,$5*
1,1,$1+$1,$6,$7*
1,1,$1+$1,$8,$9*
0 Add four rect primitives between the rounded corners*
20,1,$1+$1,$2,$3,$4,$5,0*
20,1,$1+$1,$4,$5,$6,$7,0*
20,1,$1+$1,$6,$7,$8,$9,0*
20,1,$1+$1,$8,$9,$2,$3,0*%
G04 Aperture macros list end*
%ADD10RoundRect,0.250000X-0.262500X-0.450000X0.262500X-0.450000X0.262500X0.450000X-0.262500X0.450000X0*%
%ADD11RoundRect,0.243750X0.243750X0.456250X-0.243750X0.456250X-0.243750X-0.456250X0.243750X-0.456250X0*%
%ADD12RoundRect,0.075000X-0.662500X-0.075000X0.662500X-0.075000X0.662500X0.075000X-0.662500X0.075000X0*%
%ADD13RoundRect,0.075000X0.075000X-0.662500X0.075000X0.662500X-0.075000X0.662500X-0.075000X-0.662500X0*%
G04 APERTURE END LIST*
D10*
X109457500Y-100826000D03*
X107632500Y-100826000D03*
X109521000Y-104140000D03*
X107696000Y-104140000D03*
D11*
X113902500Y-100826000D03*
X112027500Y-100826000D03*
X113967500Y-104140000D03*
X112092500Y-104140000D03*
D12*
X42447500Y-71085000D03*
X42447500Y-71585000D03*
X42447500Y-72085000D03*
X42447500Y-72585000D03*
X42447500Y-73085000D03*
X42447500Y-73585000D03*
X42447500Y-74085000D03*
X42447500Y-74585000D03*
X42447500Y-75085000D03*
X42447500Y-75585000D03*
X42447500Y-76085000D03*
X42447500Y-76585000D03*
X42447500Y-77085000D03*
X42447500Y-77585000D03*
X42447500Y-78085000D03*
X42447500Y-78585000D03*
X42447500Y-79085000D03*
X42447500Y-79585000D03*
X42447500Y-80085000D03*
X42447500Y-80585000D03*
X42447500Y-81085000D03*
X42447500Y-81585000D03*
X42447500Y-82085000D03*
X42447500Y-82585000D03*
X35022500Y-82585000D03*
X35022500Y-82085000D03*
X35022500Y-81585000D03*
X35022500Y-81085000D03*
X35022500Y-80585000D03*
X35022500Y-80085000D03*
X35022500Y-79585000D03*
X35022500Y-79085000D03*
X35022500Y-78585000D03*
X35022500Y-78085000D03*
X35022500Y-77585000D03*
X35022500Y-77085000D03*
X35022500Y-76585000D03*
X35022500Y-76085000D03*
X35022500Y-75585000D03*
X35022500Y-75085000D03*
X35022500Y-74585000D03*
X35022500Y-74085000D03*
X35022500Y-73585000D03*
X35022500Y-73085000D03*
X35022500Y-72585000D03*
X35022500Y-72085000D03*
X35022500Y-71585000D03*
X35022500Y-71085000D03*
D13*
X92040000Y-98327500D03*
X92540000Y-98327500D03*
X93040000Y-98327500D03*
X93540000Y-98327500D03*
X94040000Y-98327500D03*
X94540000Y-98327500D03*
X95040000Y-98327500D03*
X95540000Y-98327500D03*
X96040000Y-98327500D03*
X96540000Y-98327500D03*
X97040000Y-98327500D03*
X97540000Y-98327500D03*
X98040000Y-98327500D03*
X98540000Y-98327500D03*
X99040000Y-98327500D03*
X99540000Y-98327500D03*
X100040000Y-98327500D03*
X100540000Y-98327500D03*
X101040000Y-98327500D03*
X101540000Y-98327500D03*
X102040000Y-98327500D03*
X102540000Y-98327500D03*
X103040000Y-98327500D03*
X103540000Y-98327500D03*
X103540000Y-90902500D03*
X103040000Y-90902500D03*
X102540000Y-90902500D03*
X102040000Y-90902500D03*
X101540000Y-90902500D03*
X101040000Y-90902500D03*
X100540000Y-90902500D03*
X100040000Y-90902500D03*
X99540000Y-90902500D03*
X99040000Y-90902500D03*
X98540000Y-90902500D03*
X98040000Y-90902500D03*
X97540000Y-90902500D03*
X97040000Y-90902500D03*
X96540000Y-90902500D03*
X96040000Y-90902500D03*
X95540000Y-90902500D03*
X95040000Y-90902500D03*
X94540000Y-90902500D03*
X94040000Y-90902500D03*
X93540000Y-90902500D03*
X93040000Y-90902500D03*
X92540000Y-90902500D03*
X92040000Y-90902500D03*
M02*
